<?xml version="1.0" encoding="utf-8"?>
<!-- Generator: Adobe Illustrator 23.0.6, SVG Export Plug-In . SVG Version: 6.00 Build 0)  -->
<svg version="1.1" xmlns="http://www.w3.org/2000/svg" xmlns:xlink="http://www.w3.org/1999/xlink" x="0px" y="0px"
	 viewBox="0 0 1440 900" style="enable-background:new 0 0 1440 900;" xml:space="preserve">
<style type="text/css">
	.st0{fill:#231F20;stroke:#231F20;stroke-miterlimit:10;}
	.st1{fill:#F77FEE;}
	.st2{fill:#FFFFFF;}
	.st3{fill:#F9ACF7;}
	.st4{fill:#FFFDFF;}
	.st5{fill:#231F20;}
	.st6{fill:#EA42AE;}
	.st7{fill:#754C29;}
	.st8{fill:#8B5E3C;}
	.st9{fill:#F487DA;}
	.st10{fill:#EA4756;}
	.st11{fill:#EA0F0F;}
	.st12{fill:#020202;}
	.st13{fill:none;stroke:#F9ED32;stroke-miterlimit:10;}
	.st14{fill:#ED1C24;stroke:#FFFFFF;stroke-miterlimit:10;}
	.st15{fill:#825C36;stroke:#FCFCFC;stroke-miterlimit:10;}
	.st16{fill:#825C36;}
	.st17{stroke:#231F20;stroke-miterlimit:10;}
	.st18{fill:#FFFFFF;stroke:#231F20;stroke-miterlimit:10;}
	.st19{fill:#825C36;stroke:#FFFFFF;stroke-miterlimit:10;}
	.st20{fill:url(#SVGID_1_);}
	.st21{fill:#FFFFFF;stroke:#FFFFFF;stroke-miterlimit:10;}
	.st22{fill:#ED1C24;}
</style>
<g id="Calque_2">
	<rect x="-0.5" y="-0.5" class="st0" width="1440" height="900"/>
</g>
<g id="Calque_1">
	<g>
		<ellipse class="st1" cx="144.08" cy="146.3" rx="72.5" ry="76"/>
		<ellipse cx="144.08" cy="188.81" rx="12.19" ry="14.55"/>
		<path class="st2" d="M150.79,186.51h-13.87c-2.08,0-3.79-1.7-3.79-3.79v0c0-2.08,1.7-3.79,3.79-3.79h13.87
			c2.08,0,3.79,1.7,3.79,3.79v0C154.58,184.81,152.88,186.51,150.79,186.51z"/>
		<ellipse class="st3" cx="147.08" cy="163.8" rx="31.5" ry="17.5"/>
		<circle class="st0" cx="132.2" cy="163.15" r="2.94"/>
		<circle class="st0" cx="159.52" cy="163.15" r="2.94"/>
		<ellipse class="st4" cx="121.35" cy="128.81" rx="13.79" ry="10.21"/>
		<ellipse class="st4" cx="173.3" cy="127.63" rx="13.79" ry="10.21"/>
		<circle class="st5" cx="122.56" cy="131.04" r="5.55"/>
		<circle class="st5" cx="174.96" cy="129.77" r="5.55"/>
		<ellipse class="st2" cx="121.95" cy="127.63" rx="0.61" ry="3.41"/>
		<ellipse class="st2" cx="175.57" cy="125.49" rx="0.61" ry="3.41"/>
		<circle class="st6" cx="95.81" cy="163.28" r="6.64"/>
		<circle class="st6" cx="202.03" cy="166.09" r="6.64"/>
		<rect x="117.01" y="44.04" class="st7" width="46.85" height="31.95"/>
		<ellipse class="st8" cx="140.43" cy="44.04" rx="23.43" ry="4.34"/>
		<ellipse class="st7" cx="139.88" cy="79.15" rx="38.7" ry="10.85"/>
		<rect x="117.01" y="63.7" class="st5" width="46.85" height="6.6"/>
		<g>
			<path class="st9" d="M98.62,90c0,9.24-4.91,16.72-10.97,16.72c-6.06,0-10.97-7.49-10.97-16.72s10.97-16.72,10.97-16.72
				S98.62,80.76,98.62,90z"/>
			<path class="st3" d="M97.29,93.77c0.82,7.22-2.25,13.49-6.87,14.02c-4.62,0.53-9.03-4.9-9.85-12.11s6.87-14.02,6.87-14.02
				S96.47,86.55,97.29,93.77z"/>
		</g>
		<g>
			<path class="st9" d="M184.42,86.1c-0.06,9.87,4.81,17.9,10.87,17.94s11.01-7.93,11.07-17.8c0.06-9.87-10.87-17.94-10.87-17.94
				S184.48,76.23,184.42,86.1z"/>
			<path class="st3" d="M185.73,90.14c-0.87,7.71,2.17,14.43,6.78,15.03s9.06-5.17,9.92-12.88s-6.78-15.03-6.78-15.03
				S186.6,82.43,185.73,90.14z"/>
		</g>
		<path class="st10" d="M153.65,197.83c0,1.83-5.19,5.53-9.57,5.53s-9.56-3.7-9.56-5.53s4.97-5.53,9.34-5.53
			S153.65,196,153.65,197.83z"/>
	</g>
	<g>
		<ellipse class="st1" cx="894.08" cy="161.3" rx="72.5" ry="76"/>
		<ellipse cx="894.08" cy="203.81" rx="12.19" ry="14.55"/>
		<path class="st2" d="M900.79,201.51h-13.87c-2.08,0-3.79-1.7-3.79-3.79v0c0-2.08,1.7-3.79,3.79-3.79h13.87
			c2.08,0,3.79,1.7,3.79,3.79v0C904.58,199.81,902.88,201.51,900.79,201.51z"/>
		<ellipse class="st3" cx="897.08" cy="178.8" rx="31.5" ry="17.5"/>
		<circle class="st0" cx="882.2" cy="178.15" r="2.94"/>
		<circle class="st0" cx="909.52" cy="178.15" r="2.94"/>
		<ellipse class="st4" cx="871.35" cy="143.81" rx="13.79" ry="10.21"/>
		<ellipse class="st4" cx="923.3" cy="142.63" rx="13.79" ry="10.21"/>
		<circle class="st5" cx="872.56" cy="146.04" r="5.55"/>
		<circle class="st5" cx="924.96" cy="144.77" r="5.55"/>
		<ellipse class="st2" cx="871.95" cy="142.63" rx="0.61" ry="3.41"/>
		<ellipse class="st2" cx="925.57" cy="140.49" rx="0.61" ry="3.41"/>
		<circle class="st6" cx="845.81" cy="178.28" r="6.64"/>
		<circle class="st6" cx="952.03" cy="181.09" r="6.64"/>
		<rect x="867.01" y="59.04" class="st7" width="46.85" height="31.95"/>
		<ellipse class="st8" cx="890.43" cy="59.04" rx="23.43" ry="4.34"/>
		<ellipse class="st7" cx="889.88" cy="94.15" rx="38.7" ry="10.85"/>
		<rect x="867.01" y="78.7" class="st5" width="46.85" height="6.6"/>
		<g>
			<path class="st9" d="M848.62,105c0,9.24-4.91,16.72-10.97,16.72s-10.97-7.49-10.97-16.72s10.97-16.72,10.97-16.72
				S848.62,95.76,848.62,105z"/>
			<path class="st3" d="M847.29,108.77c0.82,7.22-2.25,13.49-6.87,14.02c-4.62,0.53-9.03-4.9-9.85-12.11
				c-0.82-7.22,6.87-14.02,6.87-14.02S846.47,101.55,847.29,108.77z"/>
		</g>
		<g>
			<path class="st9" d="M934.42,101.1c-0.06,9.87,4.81,17.9,10.87,17.94s11.01-7.93,11.07-17.8S945.49,83.3,945.49,83.3
				S934.48,91.23,934.42,101.1z"/>
			<path class="st3" d="M935.73,105.14c-0.87,7.71,2.17,14.43,6.78,15.03c4.61,0.59,9.06-5.17,9.92-12.88s-6.78-15.03-6.78-15.03
				S936.6,97.43,935.73,105.14z"/>
		</g>
		<path class="st10" d="M903.65,212.83c0,1.83-5.19,5.53-9.57,5.53s-9.56-3.7-9.56-5.53s4.97-5.53,9.34-5.53
			S903.65,211,903.65,212.83z"/>
	</g>
	<g>
		<ellipse class="st1" cx="890.08" cy="765.3" rx="72.5" ry="76"/>
		<ellipse cx="890.08" cy="807.81" rx="12.19" ry="14.55"/>
		<path class="st2" d="M896.79,805.51h-13.87c-2.08,0-3.79-1.7-3.79-3.79l0,0c0-2.08,1.7-3.79,3.79-3.79h13.87
			c2.08,0,3.79,1.7,3.79,3.79l0,0C900.58,803.81,898.88,805.51,896.79,805.51z"/>
		<ellipse class="st3" cx="893.08" cy="782.8" rx="31.5" ry="17.5"/>
		<circle class="st0" cx="878.2" cy="782.15" r="2.94"/>
		<circle class="st0" cx="905.52" cy="782.15" r="2.94"/>
		<ellipse class="st4" cx="867.35" cy="747.81" rx="13.79" ry="10.21"/>
		<ellipse class="st4" cx="919.3" cy="746.63" rx="13.79" ry="10.21"/>
		<circle class="st5" cx="868.56" cy="750.04" r="5.55"/>
		<circle class="st5" cx="920.96" cy="748.77" r="5.55"/>
		<ellipse class="st2" cx="867.95" cy="746.63" rx="0.61" ry="3.41"/>
		<ellipse class="st2" cx="921.57" cy="744.49" rx="0.61" ry="3.41"/>
		<circle class="st6" cx="841.81" cy="782.28" r="6.64"/>
		<circle class="st6" cx="948.03" cy="785.09" r="6.64"/>
		<rect x="863.01" y="663.04" class="st7" width="46.85" height="31.95"/>
		<ellipse class="st8" cx="886.43" cy="663.04" rx="23.43" ry="4.34"/>
		<ellipse class="st7" cx="885.88" cy="698.15" rx="38.7" ry="10.85"/>
		<rect x="863.01" y="682.7" class="st5" width="46.85" height="6.6"/>
		<g>
			<path class="st9" d="M844.62,709c0,9.24-4.91,16.72-10.97,16.72s-10.97-7.49-10.97-16.72s10.97-16.72,10.97-16.72
				S844.62,699.76,844.62,709z"/>
			<path class="st3" d="M843.29,712.77c0.82,7.22-2.25,13.49-6.87,14.02c-4.62,0.53-9.03-4.9-9.85-12.11
				c-0.82-7.22,6.87-14.02,6.87-14.02S842.47,705.55,843.29,712.77z"/>
		</g>
		<g>
			<path class="st9" d="M930.42,705.1c-0.06,9.87,4.81,17.9,10.87,17.94c6.06,0.04,11.01-7.93,11.07-17.8s-10.87-17.94-10.87-17.94
				S930.48,695.23,930.42,705.1z"/>
			<path class="st3" d="M931.73,709.14c-0.87,7.71,2.17,14.43,6.78,15.03c4.61,0.59,9.06-5.17,9.92-12.88s-6.78-15.03-6.78-15.03
				S932.6,701.43,931.73,709.14z"/>
		</g>
		<path class="st10" d="M899.65,816.83c0,1.83-5.19,5.53-9.57,5.53s-9.56-3.7-9.56-5.53s4.97-5.53,9.34-5.53
			S899.65,815,899.65,816.83z"/>
	</g>
	<g>
		<ellipse class="st1" cx="1286.08" cy="772.3" rx="72.5" ry="76"/>
		<ellipse cx="1286.08" cy="814.81" rx="12.19" ry="14.55"/>
		<path class="st2" d="M1292.79,812.51h-13.87c-2.08,0-3.79-1.7-3.79-3.79l0,0c0-2.08,1.7-3.79,3.79-3.79h13.87
			c2.08,0,3.79,1.7,3.79,3.79l0,0C1296.58,810.81,1294.88,812.51,1292.79,812.51z"/>
		<ellipse class="st3" cx="1289.08" cy="789.8" rx="31.5" ry="17.5"/>
		<circle class="st0" cx="1274.2" cy="789.15" r="2.94"/>
		<circle class="st0" cx="1301.52" cy="789.15" r="2.94"/>
		<ellipse class="st4" cx="1263.35" cy="754.81" rx="13.79" ry="10.21"/>
		<ellipse class="st4" cx="1315.3" cy="753.63" rx="13.79" ry="10.21"/>
		<circle class="st5" cx="1264.56" cy="757.04" r="5.55"/>
		<circle class="st5" cx="1316.96" cy="755.77" r="5.55"/>
		<ellipse class="st2" cx="1263.95" cy="753.63" rx="0.61" ry="3.41"/>
		<ellipse class="st2" cx="1317.57" cy="751.49" rx="0.61" ry="3.41"/>
		<circle class="st6" cx="1237.81" cy="789.28" r="6.64"/>
		<circle class="st6" cx="1344.03" cy="792.09" r="6.64"/>
		<rect x="1259.01" y="670.04" class="st7" width="46.85" height="31.95"/>
		<ellipse class="st8" cx="1282.43" cy="670.04" rx="23.43" ry="4.34"/>
		<ellipse class="st7" cx="1281.88" cy="705.15" rx="38.7" ry="10.85"/>
		<rect x="1259.01" y="689.7" class="st5" width="46.85" height="6.6"/>
		<g>
			<path class="st9" d="M1240.62,716c0,9.24-4.91,16.72-10.97,16.72s-10.97-7.49-10.97-16.72s10.97-16.72,10.97-16.72
				S1240.62,706.76,1240.62,716z"/>
			<path class="st3" d="M1239.29,719.77c0.82,7.22-2.25,13.49-6.87,14.02c-4.62,0.53-9.03-4.9-9.85-12.11
				c-0.82-7.22,6.87-14.02,6.87-14.02S1238.47,712.55,1239.29,719.77z"/>
		</g>
		<g>
			<path class="st9" d="M1326.42,712.1c-0.06,9.87,4.81,17.9,10.87,17.94c6.06,0.04,11.01-7.93,11.07-17.8s-10.87-17.94-10.87-17.94
				S1326.48,702.23,1326.42,712.1z"/>
			<path class="st3" d="M1327.73,716.14c-0.87,7.71,2.17,14.43,6.78,15.03c4.61,0.59,9.06-5.17,9.92-12.88
				c0.87-7.71-6.78-15.03-6.78-15.03S1328.6,708.43,1327.73,716.14z"/>
		</g>
		<path class="st10" d="M1295.65,823.83c0,1.83-5.19,5.53-9.57,5.53c-4.37,0-9.56-3.7-9.56-5.53s4.97-5.53,9.34-5.53
			C1290.23,818.3,1295.65,822,1295.65,823.83z"/>
	</g>
	<g>
		<ellipse class="st1" cx="1284.08" cy="457.3" rx="72.5" ry="76"/>
		<ellipse cx="1284.08" cy="499.81" rx="12.19" ry="14.55"/>
		<path class="st2" d="M1290.79,497.51h-13.87c-2.08,0-3.79-1.7-3.79-3.79l0,0c0-2.08,1.7-3.79,3.79-3.79h13.87
			c2.08,0,3.79,1.7,3.79,3.79l0,0C1294.58,495.81,1292.88,497.51,1290.79,497.51z"/>
		<ellipse class="st3" cx="1287.08" cy="474.8" rx="31.5" ry="17.5"/>
		<circle class="st0" cx="1272.2" cy="474.15" r="2.94"/>
		<circle class="st0" cx="1299.52" cy="474.15" r="2.94"/>
		<ellipse class="st4" cx="1261.35" cy="439.81" rx="13.79" ry="10.21"/>
		<ellipse class="st4" cx="1313.3" cy="438.63" rx="13.79" ry="10.21"/>
		<circle class="st5" cx="1262.56" cy="442.04" r="5.55"/>
		<circle class="st5" cx="1314.96" cy="440.77" r="5.55"/>
		<ellipse class="st2" cx="1261.95" cy="438.63" rx="0.61" ry="3.41"/>
		<ellipse class="st2" cx="1315.57" cy="436.49" rx="0.61" ry="3.41"/>
		<circle class="st6" cx="1235.81" cy="474.28" r="6.64"/>
		<circle class="st6" cx="1342.03" cy="477.09" r="6.64"/>
		<rect x="1257.01" y="355.04" class="st7" width="46.85" height="31.95"/>
		<ellipse class="st8" cx="1280.43" cy="355.04" rx="23.43" ry="4.34"/>
		<ellipse class="st7" cx="1279.88" cy="390.15" rx="38.7" ry="10.85"/>
		<rect x="1257.01" y="374.7" class="st5" width="46.85" height="6.6"/>
		<g>
			<path class="st9" d="M1238.62,401c0,9.24-4.91,16.72-10.97,16.72s-10.97-7.49-10.97-16.72s10.97-16.72,10.97-16.72
				S1238.62,391.76,1238.62,401z"/>
			<path class="st3" d="M1237.29,404.77c0.82,7.22-2.25,13.49-6.87,14.02c-4.62,0.53-9.03-4.9-9.85-12.11
				c-0.82-7.22,6.87-14.02,6.87-14.02S1236.47,397.55,1237.29,404.77z"/>
		</g>
		<g>
			<path class="st9" d="M1324.42,397.1c-0.06,9.87,4.81,17.9,10.87,17.94c6.06,0.04,11.01-7.93,11.07-17.8s-10.87-17.94-10.87-17.94
				S1324.48,387.23,1324.42,397.1z"/>
			<path class="st3" d="M1325.73,401.14c-0.87,7.71,2.17,14.43,6.78,15.03c4.61,0.59,9.06-5.17,9.92-12.88
				c0.87-7.71-6.78-15.03-6.78-15.03S1326.6,393.43,1325.73,401.14z"/>
		</g>
		<path class="st10" d="M1293.65,508.83c0,1.83-5.19,5.53-9.57,5.53c-4.37,0-9.56-3.7-9.56-5.53c0-1.83,4.97-5.53,9.34-5.53
			C1288.23,503.3,1293.65,507,1293.65,508.83z"/>
	</g>
	<g>
		<ellipse class="st1" cx="128.08" cy="462.37" rx="72.5" ry="76"/>
		<ellipse cx="128.08" cy="504.88" rx="12.19" ry="14.55"/>
		<path class="st2" d="M134.79,502.58h-13.87c-2.08,0-3.79-1.7-3.79-3.79l0,0c0-2.08,1.7-3.79,3.79-3.79h13.87
			c2.08,0,3.79,1.7,3.79,3.79l0,0C138.58,500.88,136.88,502.58,134.79,502.58z"/>
		<ellipse class="st3" cx="131.08" cy="479.87" rx="31.5" ry="17.5"/>
		<circle class="st0" cx="116.2" cy="479.22" r="2.94"/>
		<circle class="st0" cx="143.52" cy="479.22" r="2.94"/>
		<ellipse class="st4" cx="105.35" cy="444.88" rx="13.79" ry="10.21"/>
		<ellipse class="st4" cx="157.3" cy="443.7" rx="13.79" ry="10.21"/>
		<circle class="st5" cx="106.56" cy="447.11" r="5.55"/>
		<circle class="st5" cx="158.96" cy="445.84" r="5.55"/>
		<ellipse class="st2" cx="105.95" cy="443.7" rx="0.61" ry="3.41"/>
		<ellipse class="st2" cx="159.57" cy="441.56" rx="0.61" ry="3.41"/>
		<circle class="st6" cx="79.81" cy="479.35" r="6.64"/>
		<circle class="st6" cx="186.03" cy="482.16" r="6.64"/>
		<ellipse class="st5" cx="123.88" cy="395.22" rx="38.7" ry="10.85"/>
		<g>
			<path class="st9" d="M82.62,406.07c0,9.24-4.91,16.72-10.97,16.72c-6.06,0-10.97-7.49-10.97-16.72s10.97-16.72,10.97-16.72
				S82.62,396.83,82.62,406.07z"/>
			<path class="st3" d="M81.29,409.84c0.82,7.22-2.25,13.49-6.87,14.02c-4.62,0.53-9.03-4.9-9.85-12.11
				c-0.82-7.22,6.87-14.02,6.87-14.02S80.47,402.62,81.29,409.84z"/>
		</g>
		<g>
			<path class="st9" d="M168.42,402.17c-0.06,9.87,4.81,17.9,10.87,17.94s11.01-7.93,11.07-17.8c0.06-9.87-10.87-17.94-10.87-17.94
				S168.48,392.3,168.42,402.17z"/>
			<path class="st3" d="M169.73,406.21c-0.87,7.71,2.17,14.43,6.78,15.03c4.61,0.59,9.06-5.17,9.92-12.88
				c0.87-7.71-6.78-15.03-6.78-15.03S170.6,398.5,169.73,406.21z"/>
		</g>
		<path class="st10" d="M137.65,513.9c0,1.83-5.19,5.53-9.57,5.53s-9.56-3.7-9.56-5.53c0-1.83,4.97-5.53,9.34-5.53
			S137.65,512.07,137.65,513.9z"/>
		<path class="st5" d="M123.33,389.35l-23.74-2.3c-0.06-0.57-1.14-3.83-1.14-4.4c0-11.53,11.48-21.01,25.44-21.01
			s25.44,13.89,25.44,25.41L123.33,389.35z"/>
	</g>
	<g>
		<ellipse class="st1" cx="525.08" cy="147.37" rx="72.5" ry="76"/>
		<ellipse cx="525.08" cy="189.88" rx="12.19" ry="14.55"/>
		<path class="st2" d="M531.79,187.58h-13.87c-2.08,0-3.79-1.7-3.79-3.79v0c0-2.08,1.7-3.79,3.79-3.79h13.87
			c2.08,0,3.79,1.7,3.79,3.79v0C535.58,185.88,533.88,187.58,531.79,187.58z"/>
		<ellipse class="st3" cx="528.08" cy="164.87" rx="31.5" ry="17.5"/>
		<circle class="st0" cx="513.2" cy="164.22" r="2.94"/>
		<circle class="st0" cx="540.52" cy="164.22" r="2.94"/>
		<ellipse class="st4" cx="502.35" cy="129.88" rx="13.79" ry="10.21"/>
		<ellipse class="st4" cx="554.3" cy="128.7" rx="13.79" ry="10.21"/>
		<circle class="st5" cx="503.56" cy="132.11" r="5.55"/>
		<circle class="st5" cx="555.96" cy="130.84" r="5.55"/>
		<ellipse class="st2" cx="502.95" cy="128.7" rx="0.61" ry="3.41"/>
		<ellipse class="st2" cx="556.57" cy="126.56" rx="0.61" ry="3.41"/>
		<circle class="st6" cx="476.81" cy="164.35" r="6.64"/>
		<circle class="st6" cx="583.03" cy="167.16" r="6.64"/>
		<ellipse class="st5" cx="520.88" cy="80.22" rx="38.7" ry="10.85"/>
		<g>
			<path class="st9" d="M479.62,91.07c0,9.24-4.91,16.72-10.97,16.72s-10.97-7.49-10.97-16.72s10.97-16.72,10.97-16.72
				S479.62,81.83,479.62,91.07z"/>
			<path class="st3" d="M478.29,94.84c0.82,7.22-2.25,13.49-6.87,14.02s-9.03-4.9-9.85-12.11c-0.82-7.22,6.87-14.02,6.87-14.02
				S477.47,87.62,478.29,94.84z"/>
		</g>
		<g>
			<path class="st9" d="M565.42,87.17c-0.06,9.87,4.81,17.9,10.87,17.94s11.01-7.93,11.07-17.8s-10.87-17.94-10.87-17.94
				S565.48,77.3,565.42,87.17z"/>
			<path class="st3" d="M566.73,91.21c-0.87,7.71,2.17,14.43,6.78,15.03c4.61,0.59,9.06-5.17,9.92-12.88s-6.78-15.03-6.78-15.03
				S567.6,83.5,566.73,91.21z"/>
		</g>
		<path class="st10" d="M534.65,198.9c0,1.83-5.19,5.53-9.57,5.53s-9.56-3.7-9.56-5.53s4.97-5.53,9.34-5.53
			S534.65,197.07,534.65,198.9z"/>
		<path class="st5" d="M520.33,74.35l-23.74-2.3c-0.06-0.57-1.14-3.83-1.14-4.4c0-11.53,11.48-21.01,25.44-21.01
			c13.95,0,25.44,13.89,25.44,25.41L520.33,74.35z"/>
	</g>
	<g>
		<ellipse class="st1" cx="1271.08" cy="162.37" rx="72.5" ry="76"/>
		<ellipse cx="1271.08" cy="204.88" rx="12.19" ry="14.55"/>
		<path class="st2" d="M1277.79,202.58h-13.87c-2.08,0-3.79-1.7-3.79-3.79v0c0-2.08,1.7-3.79,3.79-3.79h13.87
			c2.08,0,3.79,1.7,3.79,3.79v0C1281.58,200.88,1279.88,202.58,1277.79,202.58z"/>
		<ellipse class="st3" cx="1274.08" cy="179.87" rx="31.5" ry="17.5"/>
		<circle class="st0" cx="1259.2" cy="179.22" r="2.94"/>
		<circle class="st0" cx="1286.52" cy="179.22" r="2.94"/>
		<ellipse class="st4" cx="1248.35" cy="144.88" rx="13.79" ry="10.21"/>
		<ellipse class="st4" cx="1300.3" cy="143.7" rx="13.79" ry="10.21"/>
		<circle class="st5" cx="1249.56" cy="147.11" r="5.55"/>
		<circle class="st5" cx="1301.96" cy="145.84" r="5.55"/>
		<ellipse class="st2" cx="1248.95" cy="143.7" rx="0.61" ry="3.41"/>
		<ellipse class="st2" cx="1302.57" cy="141.56" rx="0.61" ry="3.41"/>
		<circle class="st6" cx="1222.81" cy="179.35" r="6.64"/>
		<circle class="st6" cx="1329.03" cy="182.16" r="6.64"/>
		<ellipse class="st5" cx="1266.88" cy="95.22" rx="38.7" ry="10.85"/>
		<g>
			<path class="st9" d="M1225.62,106.07c0,9.24-4.91,16.72-10.97,16.72s-10.97-7.49-10.97-16.72s10.97-16.72,10.97-16.72
				S1225.62,96.83,1225.62,106.07z"/>
			<path class="st3" d="M1224.29,109.84c0.82,7.22-2.25,13.49-6.87,14.02s-9.03-4.9-9.85-12.11c-0.82-7.22,6.87-14.02,6.87-14.02
				S1223.47,102.62,1224.29,109.84z"/>
		</g>
		<g>
			<path class="st9" d="M1311.42,102.17c-0.06,9.87,4.81,17.9,10.87,17.94c6.06,0.04,11.01-7.93,11.07-17.8
				s-10.87-17.94-10.87-17.94S1311.48,92.3,1311.42,102.17z"/>
			<path class="st3" d="M1312.73,106.21c-0.87,7.71,2.17,14.43,6.78,15.03c4.61,0.59,9.06-5.17,9.92-12.88
				c0.87-7.71-6.78-15.03-6.78-15.03S1313.6,98.5,1312.73,106.21z"/>
		</g>
		<path class="st10" d="M1280.65,213.9c0,1.83-5.19,5.53-9.57,5.53c-4.37,0-9.56-3.7-9.56-5.53s4.97-5.53,9.34-5.53
			C1275.23,208.37,1280.65,212.07,1280.65,213.9z"/>
		<path class="st5" d="M1266.33,89.35l-23.74-2.3c-0.06-0.57-1.14-3.83-1.14-4.4c0-11.53,11.48-21.01,25.44-21.01
			c13.95,0,25.44,13.89,25.44,25.41L1266.33,89.35z"/>
	</g>
	<g>
		<ellipse class="st1" cx="140.11" cy="793.17" rx="72.5" ry="76"/>
		<path class="st11" d="M160.88,828.18c0,0-9.3,13.05-20.77,13.05s-21.3-12.97-21.3-12.97s9.56-8.51,21.03-8.51
			S160.88,828.18,160.88,828.18z"/>
		<ellipse class="st3" cx="143.33" cy="803.71" rx="31.5" ry="17.5"/>
		<circle class="st0" cx="128.45" cy="803.07" r="2.94"/>
		<circle class="st0" cx="155.77" cy="803.07" r="2.94"/>
		<ellipse class="st4" cx="117.6" cy="768.82" rx="13.79" ry="10.21"/>
		<ellipse class="st4" cx="169.56" cy="767.54" rx="13.79" ry="10.21"/>
		<circle class="st5" cx="118.81" cy="770.96" r="5.55"/>
		<circle class="st5" cx="171.22" cy="769.68" r="5.55"/>
		<ellipse class="st2" cx="118.21" cy="767.54" rx="0.61" ry="3.41"/>
		<ellipse class="st2" cx="171.82" cy="765.41" rx="0.61" ry="3.41"/>
		<circle class="st6" cx="92.07" cy="803.19" r="6.64"/>
		<circle class="st6" cx="198.28" cy="806" r="6.64"/>
		<g>
			<path class="st9" d="M94.88,729.92c0,9.24-4.91,16.72-10.97,16.72c-6.06,0-10.97-7.49-10.97-16.72s10.97-16.72,10.97-16.72
				S94.88,720.68,94.88,729.92z"/>
			<path class="st3" d="M93.55,733.69c0.82,7.22-2.25,13.49-6.87,14.02c-4.62,0.53-9.03-4.9-9.85-12.11
				c-0.82-7.22,6.87-14.02,6.87-14.02S92.72,726.47,93.55,733.69z"/>
		</g>
		<g>
			<path class="st9" d="M180.68,726.02c-0.06,9.87,4.81,17.9,10.87,17.94c6.06,0.04,11.01-7.93,11.07-17.8
				c0.06-9.87-10.87-17.94-10.87-17.94S180.73,716.14,180.68,726.02z"/>
			<path class="st3" d="M181.98,730.05c-0.87,7.71,2.17,14.43,6.78,15.03s9.06-5.17,9.92-12.88c0.87-7.71-6.78-15.03-6.78-15.03
				S182.85,722.35,181.98,730.05z"/>
		</g>
		<g>
			<g>
				<path class="st5" d="M105.29,764.21c-1.1-1.01-2.23-2.04-3.16-3.26c-0.46-0.61-0.86-1.28-1.12-2c-0.12-0.36-0.22-0.74-0.23-1.12
					c-0.01-0.38,0.08-0.78,0.35-1.06c-0.23,0.3-0.27,0.69-0.22,1.05c0.05,0.36,0.18,0.71,0.33,1.04c0.32,0.66,0.76,1.24,1.27,1.77
					c1.01,1.06,2.2,1.93,3.41,2.81L105.29,764.21z"/>
			</g>
			<g>
				<path class="st5" d="M105.87,763.47c-1.1-1.01-2.23-2.04-3.16-3.26c-0.46-0.61-0.86-1.27-1.12-1.99
					c-0.12-0.36-0.22-0.74-0.23-1.12c-0.01-0.38,0.08-0.78,0.35-1.06c-0.23,0.3-0.27,0.69-0.22,1.05c0.05,0.36,0.18,0.71,0.33,1.03
					c0.32,0.66,0.76,1.24,1.27,1.77c1.01,1.06,2.2,1.93,3.41,2.81L105.87,763.47z"/>
			</g>
			<g>
				<path class="st5" d="M106.47,762.84c-1.06-1.06-2.15-2.14-3.03-3.4c-0.44-0.63-0.81-1.31-1.04-2.05
					c-0.11-0.37-0.19-0.75-0.18-1.13c0-0.38,0.11-0.78,0.39-1.04c-0.24,0.29-0.3,0.68-0.27,1.04c0.03,0.36,0.15,0.72,0.29,1.05
					c0.29,0.67,0.72,1.27,1.2,1.82c0.97,1.1,2.13,2.02,3.3,2.96L106.47,762.84z"/>
			</g>
		</g>
		<g>
			<g>
				<path class="st5" d="M180.16,760.85c1.13-1.02,2.25-2.02,3.18-3.2c0.46-0.59,0.86-1.22,1.11-1.92c0.12-0.35,0.22-0.71,0.22-1.09
					c0.01-0.37-0.09-0.76-0.37-1.02c0.31,0.23,0.46,0.63,0.5,1.02c0.04,0.39-0.02,0.78-0.11,1.16c-0.18,0.76-0.53,1.48-0.94,2.14
					c-0.82,1.33-1.87,2.49-2.88,3.62L180.16,760.85z"/>
			</g>
			<g>
				<path class="st5" d="M179.45,760.2c1.13-1.02,2.25-2.02,3.17-3.2c0.46-0.59,0.86-1.22,1.11-1.92c0.12-0.35,0.22-0.71,0.22-1.09
					c0.01-0.37-0.09-0.76-0.37-1.02c0.31,0.23,0.46,0.63,0.49,1.02c0.04,0.39-0.02,0.78-0.11,1.16c-0.19,0.76-0.53,1.47-0.94,2.14
					c-0.82,1.33-1.86,2.48-2.88,3.62L179.45,760.2z"/>
			</g>
			<g>
				<path class="st5" d="M178.72,759.69c1.09-1.07,2.17-2.12,3.05-3.33c0.43-0.61,0.81-1.26,1.03-1.97c0.11-0.35,0.19-0.72,0.18-1.1
					c-0.01-0.37-0.12-0.75-0.41-1.01c0.32,0.22,0.49,0.61,0.54,1c0.06,0.39,0.01,0.79-0.06,1.17c-0.15,0.77-0.47,1.5-0.85,2.18
					c-0.77,1.36-1.77,2.56-2.73,3.74L178.72,759.69z"/>
			</g>
		</g>
		<path class="st12" d="M122.32,828.95c0,0,13.62,6.47,15.06,7.32s16.34-5.52,18.89-5.77c2.55-0.26-16.34-7.16-16.43-8.19
			c-0.09-1.02-13.9,7.19-16.59,6.72"/>
		<path class="st13" d="M133,718.6c-5.76-0.73-12.51-1.12-16.42,3.17c-3,3.28-3.2,8.2-2.89,12.63c0.15,2.14,0.42,4.38,1.64,6.14
			c1.22,1.77,3.68,2.85,5.59,1.86c2.6-3.65-0.18-9.39-4.52-10.51c-4.34-1.11-9.02,1.62-11.21,5.53c-2.19,3.91-2.3,8.68-1.53,13.09
			c0.15,0.84,0.34,1.71,0.86,2.39c2.01,2.63,6.25,0.33,9.47,1.08c1.46-2.09-0.17-5.22-2.55-6.12c-2.38-0.9-5.06-0.21-7.43,0.74
			c-14.35,5.74-24.2,21.18-23.35,36.61"/>
		<path class="st13" d="M132.47,718.03c-0.29-2.04,1.78-3.83,3.84-3.91c2.06-0.07,3.96,1.11,5.48,2.49
			c3.94,3.56,6.32,8.79,6.42,14.09c0.03,1.33-0.11,2.74-0.87,3.84c-0.93,1.33-2.57,1.92-4.14,2.33c-3.24,0.84-6.6,1.19-9.95,1.04
			c-2.69-0.12-6.11-1.38-5.98-4.07c2.65-1.26,5.48-2.14,8.38-2.58c1.55-0.24,3.18-0.35,4.64,0.21c2.44,0.93,3.85,3.46,4.84,5.88
			c1.64,3.99,2.44,9.22-0.78,12.09c-1.19,1.06-2.75,1.6-4.29,2.03c-2.7,0.76-5.57,1.28-8.31,0.66s-5.32-2.58-5.95-5.32
			c3.65-1.02,7.85,0.45,10.07,3.52c2.22,3.07,2.29,7.52,0.18,10.66c-1.9,2.83-5.21,4.41-8.5,5.31c-3.35,0.92-7.05,1.24-10.18-0.25
			c-3.13-1.49-5.36-5.25-4.19-8.52"/>
		<path class="st13" d="M122.98,716.83c1.31-1.26-0.69-3.23-2.41-3.82c-6.13-2.09-13.26-2.62-18.77,0.77s-8.14,11.67-4.01,16.65
			c1.05,1.27,2.61,2.28,4.25,2.09c1.64-0.19,3.05-2.03,2.35-3.52c-0.39-0.83-1.27-1.31-2.11-1.69c-7.9-3.57-17.41-3.34-25.13,0.6
			c-7.72,3.94-13.48,11.51-15.22,20c-0.5,2.46-0.67,5.1,0.29,7.42s3.3,4.21,5.81,3.99c1.98-0.18,3.63-1.57,5.05-2.96
			c-8.11-1.45-16.45-1.58-24.6-0.4c-4.91,0.71-10.16,2.16-13.13,6.13c-1.99,2.66-2.64,6.07-3.22,9.34
			c-1.74,9.75-3.36,20.01-0.18,29.39c3.18,9.38,12.85,17.35,22.5,15.09"/>
		<path class="st13" d="M194.03,745.39c1.82-4.3,7.66-5.89,11.91-3.98c4.26,1.91,6.88,6.46,7.59,11.07c0.4,2.6,0.21,5.49-1.46,7.53
			c-1.67,2.04-5.16,2.66-6.92,0.69c-1.78-1.03-1.66-3.91-0.15-5.3c1.51-1.39,3.81-1.56,5.83-1.14c8.16,1.67,12.57,10.63,14.13,18.82
			c0.96,5.04,1,10.99-2.83,14.41c-1.07,0.96-2.52,1.65-3.92,1.33c-1.4-0.32-2.48-1.99-1.8-3.25c1.02-1.88,3.96-0.78,5.38,0.82
			c3.22,3.63,4.5,8.6,4.93,13.43c0.66,7.44-0.63,15.43-5.49,21.11c-4.86,5.67-13.89,8.09-20.1,3.94"/>
		<path class="st13" d="M164.96,724.38c-0.9-5.99,5.54-11.81,11.41-10.31c4.64,1.19,7.61,5.72,9.35,10.18
			c1.45,3.73,2.37,7.67,2.71,11.67c0.17,1.99,0.18,4.09-0.73,5.86s-3.01,3.09-4.91,2.5c-1.91-0.59-2.73-3.55-1.1-4.69
			c3.86-1.28,8.05,0.63,11.36,3c9.72,6.97,16.03,18.49,16.64,30.44c0.23,4.54-0.53,9.55-3.92,12.57s-9.95,2.35-11.27-1.99
			c3.16-2.5,7.77,0.06,10.6,2.93c8.09,8.21,12.94,19.54,13.31,31.06c0.1,3.06-0.18,6.33-2.01,8.79c-1.52,2.04-3.89,3.24-6.22,4.27
			c-4.16,1.84-8.47,3.37-12.86,4.58c-6.84,1.88-15.17,2.59-20.07-2.53c-4.32-4.51-4.08-11.58-3.56-17.81"/>
		<path class="st13" d="M111.81,723.75c0.98-2.65-0.68-5.69-3.06-7.22c-2.38-1.53-5.29-1.9-8.09-2.24
			c-3.53-0.42-7.54-0.71-10.19,1.67c-1.64,1.47-2.39,3.68-2.97,5.81c-2.01,7.39-2.77,15.12-2.23,22.76c2.4,0.17,4.81,0.33,7.21,0.5
			c-2.15-7.45-12.81-9.54-19.29-5.28s-9.23,12.43-9.96,20.15c-0.58,6.16-0.16,12.41,1.24,18.43c-4.18-1.94-8.44-3.91-13.01-4.55
			c-4.57-0.64-9.57,0.23-12.95,3.37c-5.08,4.72-4.98,12.64-4.51,19.55"/>
		<path class="st13" d="M150.5,717.31c-0.19-5.39,5.31-10.16,10.65-9.41c5.35,0.75,9.31,6.59,8.24,11.88s-6.75,9.12-12.09,8.34
			c-1.32-0.94-0.77-3.22,0.63-4.03c1.4-0.81,3.16-0.54,4.72-0.08c9.1,2.69,16,11.57,16.37,21.05c0.08,2.1-0.43,4.63-2.39,5.37
			c-1.41-0.97-1.34-3.24-0.26-4.56c1.08-1.33,2.82-1.91,4.49-2.3c7.71-1.77,16.21-0.4,22.62,4.22c6.41,4.63,10.45,12.58,9.79,20.46
			c-0.21,2.46-1.69,5.49-4.13,5.09"/>
		<path class="st13" d="M66.89,792.27c-7.55,3.56-12.45,12.09-11.71,20.41c0.71,0.16,1.41,0.32,2.12,0.48
			c-4.82-1.15-8.84,3.59-11.52,7.76c-6.17,9.61-12.39,19.73-13.66,31.08c-0.41,3.69,0.29,8.31,3.77,9.6"/>
		<path class="st13" d="M70.42,773.81c-5.45-0.57-10.94-0.73-16.42-0.46c-1.39,0.07-2.87,0.19-4,1c-1.27,0.91-1.84,2.5-2.25,4.01
			c-1.49,5.45-1.9,11.2-1.19,16.81c2.78,1.28,6.09,1.71,8.9,0.48c2.8-1.23,4.84-4.38,4.19-7.37c-0.65-2.99-4.43-5.03-7.06-3.46
			c-1.37,0.82-2.16,2.32-2.84,3.77c-5.26,11.36-7.32,24.18-5.86,36.61c0.94,0.05,1.88,0.1,2.82,0.14c-2.8-0.8-5.9,0.66-7.66,2.98
			c-1.77,2.32-2.4,5.31-2.56,8.22c-0.23,4.47,0.71,9.25,3.8,12.48s8.72,4.23,12.08,1.28"/>
		<path class="st13" d="M69.51,807.45c-5.56,5.95-8.63,14.16-8.32,22.29c0.07,1.82,0.34,3.75,1.5,5.16
			c1.91,2.33,5.38,2.42,8.39,2.31c1.04-0.04,2.23-0.15,2.85-0.99c0.56-0.76,0.41-1.82,0.22-2.74c-0.44-2.09-1.02-4.23-2.31-5.94
			s-3.47-2.9-5.56-2.47c-3.02,0.62-4.48,4.04-5.13,7.05c-1.55,7.17-1.32,14.72,0.66,21.79c0.28,1.01,0.61,2.04,0.55,3.09
			c-0.06,0.98-0.44,1.91-0.79,2.84c-1.09,2.94-1.77,6.04-2.01,9.17c-0.19,2.5-0.05,5.2,1.43,7.23s4.71,2.91,6.55,1.21"/>
		<path class="st13" d="M138,713.72c2.52-2.06,1.46-6.46-1.18-8.36c-2.65-1.89-6.13-1.99-9.39-2.01c-3.77-0.03-7.71-0.02-11.07,1.68
			c-3.36,1.71-5.9,5.68-4.68,9.25c0.81-0.06,1.61-0.11,2.42-0.17c1.07-1.07,0.73-3-0.35-4.06c-1.08-1.06-2.64-1.44-4.14-1.66
			c-5.65-0.81-12.09,0.46-15.54,5.01c-2.12,2.79-2.82,6.4-3.12,9.9c-0.4,4.74-0.17,9.52,0.68,14.2c0.33,1.83,0.86,3.79,2.34,4.91
			s4.17,0.65,4.51-1.17c-5.88,2.49-10.6,7.59-12.62,13.65s-1.31,12.97,1.9,18.49"/>
		<path class="st13" d="M144.67,715.94c1.67-6.22,10.03-9.5,15.48-6.06c2.72,1.71,4.51,4.64,5.41,7.73
			c1.05,3.62,0.9,7.78-1.29,10.85c-2.18,3.07-6.7,4.56-9.94,2.64c-1.12-3.34-1.45-8.28,1.96-9.15c1.39-0.36,2.84,0.24,4.08,0.95
			c11.24,6.35,14.49,23.41,6.38,33.45c-1.23-1.86-1.64-4.25-1.11-6.41c6.78,0.33,12.89,4.05,18.37,8.04
			c6.45,4.7,12.78,10.33,15.28,17.92c2.5,7.58-0.33,17.42-7.82,20.19"/>
		<path class="st14" d="M165.66,721.45c0,6.77-0.84,13.51-9.6,13.51c-6.32,0-14.96-6.4-19.29-9.96c-0.91,2.02-3.13,3.45-5.73,3.45
			c-2.39,0-4.47-1.21-5.49-2.98c-3.47,3.49-10.48,9.41-18.08,9.41c-10.76,0-11.63-4.37-11.63-12.21c0-7.84,1.74-13.88,12.51-13.88
			c7.64,0,14.25,7.15,17.45,11.3c1.09-1.55,3.03-2.58,5.24-2.58c2.22,0,4.17,1.05,5.26,2.61c3.71-4.01,11.36-11.33,17.72-11.33
			C162.79,708.79,165.66,714.68,165.66,721.45z"/>
	</g>
	<g>
		<ellipse class="st1" cx="516.11" cy="770.17" rx="72.5" ry="76"/>
		<path class="st11" d="M536.88,805.18c0,0-9.3,13.05-20.77,13.05c-11.47,0-21.3-12.97-21.3-12.97s9.56-8.51,21.03-8.51
			C527.31,796.76,536.88,805.18,536.88,805.18z"/>
		<ellipse class="st3" cx="519.33" cy="780.71" rx="31.5" ry="17.5"/>
		<circle class="st0" cx="504.45" cy="780.07" r="2.94"/>
		<circle class="st0" cx="531.77" cy="780.07" r="2.94"/>
		<ellipse class="st4" cx="493.6" cy="745.82" rx="13.79" ry="10.21"/>
		<ellipse class="st4" cx="545.56" cy="744.54" rx="13.79" ry="10.21"/>
		<circle class="st5" cx="494.81" cy="747.96" r="5.55"/>
		<circle class="st5" cx="547.22" cy="746.68" r="5.55"/>
		<ellipse class="st2" cx="494.21" cy="744.54" rx="0.61" ry="3.41"/>
		<ellipse class="st2" cx="547.82" cy="742.41" rx="0.61" ry="3.41"/>
		<circle class="st6" cx="468.07" cy="780.19" r="6.64"/>
		<circle class="st6" cx="574.28" cy="783" r="6.64"/>
		<g>
			<path class="st9" d="M470.88,706.92c0,9.24-4.91,16.72-10.97,16.72c-6.06,0-10.97-7.49-10.97-16.72s10.97-16.72,10.97-16.72
				S470.88,697.68,470.88,706.92z"/>
			<path class="st3" d="M469.55,710.69c0.82,7.22-2.25,13.49-6.87,14.02c-4.62,0.53-9.03-4.9-9.85-12.11
				c-0.82-7.22,6.87-14.02,6.87-14.02S468.72,703.47,469.55,710.69z"/>
		</g>
		<g>
			<path class="st9" d="M556.68,703.02c-0.06,9.87,4.81,17.9,10.87,17.94c6.06,0.04,11.01-7.93,11.07-17.8
				c0.06-9.87-10.87-17.94-10.87-17.94S556.73,693.14,556.68,703.02z"/>
			<path class="st3" d="M557.98,707.05c-0.87,7.71,2.17,14.43,6.78,15.03c4.61,0.59,9.06-5.17,9.92-12.88
				c0.87-7.71-6.78-15.03-6.78-15.03S558.85,699.35,557.98,707.05z"/>
		</g>
		<g>
			<g>
				<path class="st5" d="M481.29,741.21c-1.1-1.01-2.23-2.04-3.16-3.26c-0.46-0.61-0.86-1.28-1.12-2c-0.12-0.36-0.22-0.74-0.23-1.12
					c-0.01-0.38,0.08-0.78,0.35-1.06c-0.23,0.3-0.27,0.69-0.22,1.05c0.05,0.36,0.18,0.71,0.33,1.04c0.32,0.66,0.76,1.24,1.27,1.77
					c1.01,1.06,2.2,1.93,3.41,2.81L481.29,741.21z"/>
			</g>
			<g>
				<path class="st5" d="M481.87,740.47c-1.1-1.01-2.23-2.04-3.16-3.26c-0.46-0.61-0.86-1.27-1.12-1.99
					c-0.12-0.36-0.22-0.74-0.23-1.12c-0.01-0.38,0.08-0.78,0.35-1.06c-0.23,0.3-0.27,0.69-0.22,1.05c0.05,0.36,0.18,0.71,0.33,1.03
					c0.32,0.66,0.76,1.24,1.27,1.77c1.01,1.06,2.2,1.93,3.41,2.81L481.87,740.47z"/>
			</g>
			<g>
				<path class="st5" d="M482.47,739.84c-1.06-1.06-2.15-2.14-3.03-3.4c-0.44-0.63-0.81-1.31-1.04-2.05
					c-0.11-0.37-0.19-0.75-0.18-1.13c0-0.38,0.11-0.78,0.39-1.04c-0.24,0.29-0.3,0.68-0.27,1.04c0.03,0.36,0.15,0.72,0.29,1.05
					c0.29,0.67,0.72,1.27,1.2,1.82c0.97,1.1,2.13,2.02,3.3,2.96L482.47,739.84z"/>
			</g>
		</g>
		<g>
			<g>
				<path class="st5" d="M556.16,737.85c1.13-1.02,2.26-2.02,3.18-3.2c0.46-0.59,0.86-1.22,1.11-1.92c0.12-0.35,0.22-0.71,0.22-1.09
					c0.01-0.37-0.09-0.76-0.37-1.02c0.31,0.23,0.46,0.63,0.5,1.02c0.04,0.39-0.02,0.78-0.11,1.16c-0.18,0.76-0.53,1.48-0.94,2.14
					c-0.82,1.33-1.87,2.49-2.88,3.62L556.16,737.85z"/>
			</g>
			<g>
				<path class="st5" d="M555.45,737.2c1.13-1.02,2.25-2.02,3.17-3.2c0.46-0.59,0.86-1.22,1.11-1.92c0.12-0.35,0.22-0.71,0.22-1.09
					c0.01-0.37-0.09-0.76-0.37-1.02c0.31,0.23,0.46,0.63,0.49,1.02c0.04,0.39-0.02,0.78-0.11,1.16c-0.19,0.76-0.53,1.47-0.94,2.14
					c-0.82,1.33-1.86,2.48-2.88,3.62L555.45,737.2z"/>
			</g>
			<g>
				<path class="st5" d="M554.72,736.69c1.09-1.07,2.17-2.12,3.05-3.33c0.43-0.61,0.81-1.26,1.03-1.97c0.11-0.35,0.19-0.72,0.18-1.1
					c-0.01-0.37-0.12-0.75-0.41-1.01c0.32,0.22,0.49,0.61,0.54,1c0.06,0.39,0.01,0.79-0.06,1.17c-0.15,0.77-0.47,1.5-0.85,2.18
					c-0.77,1.36-1.77,2.56-2.73,3.74L554.72,736.69z"/>
			</g>
		</g>
		<path class="st12" d="M498.32,805.95c0,0,13.62,6.47,15.06,7.32c1.45,0.85,16.34-5.52,18.89-5.77c2.55-0.26-16.34-7.16-16.43-8.19
			c-0.09-1.02-13.9,7.19-16.59,6.72"/>
		<path class="st13" d="M509,695.6c-5.76-0.73-12.51-1.12-16.42,3.17c-3,3.28-3.2,8.2-2.89,12.63c0.15,2.14,0.42,4.38,1.64,6.14
			c1.22,1.77,3.68,2.85,5.59,1.86c2.6-3.65-0.18-9.39-4.52-10.51c-4.34-1.11-9.02,1.62-11.21,5.53c-2.19,3.91-2.3,8.68-1.53,13.09
			c0.15,0.84,0.34,1.71,0.86,2.39c2.01,2.63,6.25,0.33,9.47,1.08c1.46-2.09-0.17-5.22-2.55-6.12c-2.38-0.9-5.06-0.21-7.43,0.74
			c-14.35,5.74-24.2,21.18-23.35,36.61"/>
		<path class="st13" d="M508.47,695.03c-0.29-2.04,1.78-3.83,3.84-3.91c2.06-0.07,3.96,1.11,5.48,2.49
			c3.94,3.56,6.32,8.79,6.42,14.09c0.03,1.33-0.11,2.74-0.87,3.84c-0.93,1.33-2.57,1.92-4.14,2.33c-3.24,0.84-6.6,1.19-9.95,1.04
			c-2.69-0.12-6.11-1.38-5.98-4.07c2.65-1.26,5.48-2.14,8.38-2.58c1.55-0.24,3.18-0.35,4.64,0.21c2.44,0.93,3.85,3.46,4.84,5.88
			c1.64,3.99,2.44,9.22-0.78,12.09c-1.19,1.06-2.75,1.6-4.29,2.03c-2.7,0.76-5.57,1.28-8.31,0.66c-2.74-0.61-5.32-2.58-5.95-5.32
			c3.65-1.02,7.85,0.45,10.07,3.52c2.22,3.07,2.29,7.52,0.18,10.66c-1.9,2.83-5.21,4.41-8.5,5.31c-3.35,0.92-7.05,1.24-10.18-0.25
			c-3.13-1.49-5.36-5.25-4.19-8.52"/>
		<path class="st13" d="M498.98,693.83c1.31-1.26-0.69-3.23-2.41-3.82c-6.13-2.09-13.26-2.62-18.77,0.77
			c-5.51,3.39-8.14,11.67-4.01,16.65c1.05,1.27,2.61,2.28,4.25,2.09c1.64-0.19,3.05-2.03,2.35-3.52c-0.39-0.83-1.27-1.31-2.11-1.69
			c-7.9-3.57-17.41-3.34-25.13,0.6c-7.72,3.94-13.48,11.51-15.22,20c-0.5,2.46-0.67,5.1,0.29,7.42s3.3,4.21,5.81,3.99
			c1.98-0.18,3.63-1.57,5.05-2.96c-8.11-1.45-16.45-1.58-24.6-0.4c-4.91,0.71-10.16,2.16-13.13,6.13c-1.99,2.66-2.64,6.07-3.22,9.34
			c-1.74,9.75-3.36,20.01-0.18,29.39c3.18,9.38,12.85,17.35,22.5,15.09"/>
		<path class="st13" d="M570.03,722.39c1.82-4.3,7.66-5.89,11.91-3.98c4.26,1.91,6.88,6.46,7.59,11.07c0.4,2.6,0.21,5.49-1.46,7.53
			c-1.67,2.04-5.16,2.66-6.92,0.69c-1.78-1.03-1.66-3.91-0.15-5.3c1.51-1.39,3.81-1.56,5.83-1.14c8.16,1.67,12.57,10.63,14.13,18.82
			c0.96,5.04,1,10.99-2.83,14.41c-1.07,0.96-2.52,1.65-3.92,1.33c-1.4-0.32-2.48-1.99-1.8-3.25c1.02-1.88,3.96-0.78,5.38,0.82
			c3.22,3.63,4.5,8.6,4.93,13.43c0.66,7.44-0.63,15.43-5.49,21.11c-4.86,5.67-13.89,8.09-20.1,3.94"/>
		<path class="st13" d="M540.96,701.38c-0.9-5.99,5.54-11.81,11.41-10.31c4.64,1.19,7.61,5.72,9.35,10.18
			c1.45,3.73,2.37,7.67,2.71,11.67c0.17,1.99,0.18,4.09-0.73,5.86s-3.01,3.09-4.91,2.5c-1.91-0.59-2.73-3.55-1.1-4.69
			c3.86-1.28,8.05,0.63,11.36,3c9.72,6.97,16.03,18.49,16.64,30.44c0.23,4.54-0.53,9.55-3.92,12.57s-9.95,2.35-11.27-1.99
			c3.16-2.5,7.77,0.06,10.6,2.93c8.09,8.21,12.94,19.54,13.31,31.06c0.1,3.06-0.18,6.33-2.01,8.79c-1.52,2.04-3.89,3.24-6.22,4.27
			c-4.16,1.84-8.47,3.37-12.86,4.58c-6.84,1.88-15.17,2.59-20.07-2.53c-4.32-4.51-4.08-11.58-3.56-17.81"/>
		<path class="st13" d="M487.81,700.75c0.98-2.65-0.68-5.69-3.06-7.22c-2.38-1.53-5.29-1.9-8.09-2.24
			c-3.53-0.42-7.54-0.71-10.19,1.67c-1.64,1.47-2.39,3.68-2.97,5.81c-2.01,7.39-2.77,15.12-2.23,22.76c2.4,0.17,4.81,0.33,7.21,0.5
			c-2.15-7.45-12.81-9.54-19.29-5.28c-6.48,4.26-9.23,12.43-9.96,20.15c-0.58,6.16-0.16,12.41,1.24,18.43
			c-4.18-1.94-8.44-3.91-13.01-4.55c-4.57-0.64-9.57,0.23-12.95,3.37c-5.08,4.72-4.98,12.64-4.51,19.55"/>
		<path class="st13" d="M526.5,694.31c-0.19-5.39,5.31-10.16,10.65-9.41c5.35,0.75,9.31,6.59,8.24,11.88s-6.75,9.12-12.09,8.34
			c-1.32-0.94-0.77-3.22,0.63-4.03c1.4-0.81,3.16-0.54,4.72-0.08c9.1,2.69,16,11.57,16.37,21.05c0.08,2.1-0.43,4.63-2.39,5.37
			c-1.41-0.97-1.34-3.24-0.26-4.56s2.82-1.91,4.49-2.3c7.71-1.77,16.21-0.4,22.62,4.22s10.45,12.58,9.79,20.46
			c-0.21,2.46-1.69,5.49-4.13,5.09"/>
		<path class="st13" d="M442.89,769.27c-7.55,3.56-12.45,12.09-11.71,20.41c0.71,0.16,1.41,0.32,2.12,0.48
			c-4.82-1.15-8.84,3.59-11.52,7.76c-6.17,9.61-12.39,19.73-13.66,31.08c-0.41,3.69,0.29,8.31,3.77,9.6"/>
		<path class="st13" d="M446.42,750.81c-5.45-0.57-10.94-0.73-16.42-0.46c-1.39,0.07-2.87,0.19-4,1c-1.27,0.91-1.84,2.5-2.25,4.01
			c-1.49,5.45-1.9,11.2-1.19,16.81c2.78,1.28,6.09,1.71,8.9,0.48c2.8-1.23,4.84-4.38,4.19-7.37c-0.65-2.99-4.43-5.03-7.06-3.46
			c-1.37,0.82-2.16,2.32-2.84,3.77c-5.26,11.36-7.32,24.18-5.86,36.61c0.94,0.05,1.88,0.1,2.82,0.14c-2.8-0.8-5.9,0.66-7.66,2.98
			c-1.77,2.32-2.4,5.31-2.56,8.22c-0.23,4.47,0.71,9.25,3.8,12.48c3.09,3.23,8.72,4.23,12.08,1.28"/>
		<path class="st13" d="M445.51,784.45c-5.56,5.95-8.63,14.16-8.32,22.29c0.07,1.82,0.34,3.75,1.5,5.16
			c1.91,2.33,5.38,2.42,8.39,2.31c1.04-0.04,2.23-0.15,2.85-0.99c0.56-0.76,0.41-1.82,0.22-2.74c-0.44-2.09-1.02-4.23-2.31-5.94
			c-1.29-1.71-3.47-2.9-5.56-2.47c-3.02,0.62-4.48,4.04-5.13,7.05c-1.55,7.17-1.32,14.72,0.66,21.79c0.28,1.01,0.61,2.04,0.55,3.09
			c-0.06,0.98-0.44,1.91-0.79,2.84c-1.09,2.94-1.77,6.04-2.01,9.17c-0.19,2.5-0.05,5.2,1.43,7.23s4.71,2.91,6.55,1.21"/>
		<path class="st13" d="M514,690.72c2.52-2.06,1.46-6.46-1.18-8.36c-2.65-1.89-6.13-1.99-9.39-2.01c-3.77-0.03-7.71-0.02-11.07,1.68
			c-3.36,1.71-5.9,5.68-4.68,9.25c0.81-0.06,1.61-0.11,2.42-0.17c1.07-1.07,0.73-3-0.35-4.06c-1.08-1.06-2.64-1.44-4.14-1.66
			c-5.65-0.81-12.09,0.46-15.54,5.01c-2.12,2.79-2.82,6.4-3.12,9.9c-0.4,4.74-0.17,9.52,0.68,14.2c0.33,1.83,0.86,3.79,2.34,4.91
			c1.49,1.12,4.17,0.65,4.51-1.17c-5.88,2.49-10.6,7.59-12.62,13.65s-1.31,12.97,1.9,18.49"/>
		<path class="st13" d="M520.67,692.94c1.67-6.22,10.03-9.5,15.48-6.06c2.72,1.71,4.51,4.64,5.41,7.73
			c1.05,3.62,0.9,7.78-1.29,10.85c-2.18,3.07-6.7,4.56-9.94,2.64c-1.12-3.34-1.45-8.28,1.96-9.15c1.39-0.36,2.84,0.24,4.08,0.95
			c11.24,6.35,14.49,23.41,6.38,33.45c-1.23-1.86-1.64-4.25-1.11-6.41c6.78,0.33,12.89,4.05,18.37,8.04
			c6.45,4.7,12.78,10.33,15.28,17.92c2.5,7.58-0.33,17.42-7.82,20.19"/>
		<path class="st14" d="M541.66,698.45c0,6.77-0.84,13.51-9.6,13.51c-6.32,0-14.96-6.4-19.29-9.96c-0.91,2.02-3.13,3.45-5.73,3.45
			c-2.39,0-4.47-1.21-5.49-2.98c-3.47,3.49-10.48,9.41-18.08,9.41c-10.76,0-11.63-4.37-11.63-12.21c0-7.84,1.74-13.88,12.51-13.88
			c7.64,0,14.25,7.15,17.45,11.3c1.09-1.55,3.03-2.58,5.24-2.58c2.22,0,4.17,1.05,5.26,2.61c3.71-4.01,11.36-11.33,17.72-11.33
			C538.79,685.79,541.66,691.68,541.66,698.45z"/>
	</g>
	<g>
		<ellipse class="st1" cx="905.11" cy="460.17" rx="72.5" ry="76"/>
		<path class="st11" d="M925.88,495.18c0,0-9.3,13.05-20.77,13.05c-11.47,0-21.3-12.97-21.3-12.97s9.56-8.51,21.03-8.51
			S925.88,495.18,925.88,495.18z"/>
		<ellipse class="st3" cx="908.33" cy="470.71" rx="31.5" ry="17.5"/>
		<circle class="st0" cx="893.45" cy="470.07" r="2.94"/>
		<circle class="st0" cx="920.77" cy="470.07" r="2.94"/>
		<ellipse class="st4" cx="882.6" cy="435.82" rx="13.79" ry="10.21"/>
		<ellipse class="st4" cx="934.56" cy="434.54" rx="13.79" ry="10.21"/>
		<circle class="st5" cx="883.81" cy="437.96" r="5.55"/>
		<circle class="st5" cx="936.22" cy="436.68" r="5.55"/>
		<ellipse class="st2" cx="883.21" cy="434.54" rx="0.61" ry="3.41"/>
		<ellipse class="st2" cx="936.82" cy="432.41" rx="0.61" ry="3.41"/>
		<circle class="st6" cx="857.07" cy="470.19" r="6.64"/>
		<circle class="st6" cx="963.28" cy="473" r="6.64"/>
		<g>
			<path class="st9" d="M859.88,396.92c0,9.24-4.91,16.72-10.97,16.72s-10.97-7.49-10.97-16.72s10.97-16.72,10.97-16.72
				S859.88,387.68,859.88,396.92z"/>
			<path class="st3" d="M858.55,400.69c0.82,7.22-2.25,13.49-6.87,14.02c-4.62,0.53-9.03-4.9-9.85-12.11
				c-0.82-7.22,6.87-14.02,6.87-14.02S857.72,393.47,858.55,400.69z"/>
		</g>
		<g>
			<path class="st9" d="M945.68,393.02c-0.06,9.87,4.81,17.9,10.87,17.94s11.01-7.93,11.07-17.8s-10.87-17.94-10.87-17.94
				S945.73,383.14,945.68,393.02z"/>
			<path class="st3" d="M946.98,397.05c-0.87,7.71,2.17,14.43,6.78,15.03c4.61,0.59,9.06-5.17,9.92-12.88s-6.78-15.03-6.78-15.03
				S947.85,389.35,946.98,397.05z"/>
		</g>
		<g>
			<g>
				<path class="st5" d="M870.29,431.21c-1.1-1.01-2.23-2.04-3.16-3.26c-0.46-0.61-0.86-1.28-1.12-2c-0.12-0.36-0.22-0.74-0.23-1.12
					c-0.01-0.38,0.08-0.78,0.35-1.06c-0.23,0.3-0.27,0.69-0.22,1.05c0.05,0.36,0.18,0.71,0.33,1.04c0.32,0.66,0.76,1.24,1.27,1.77
					c1.01,1.06,2.2,1.93,3.41,2.81L870.29,431.21z"/>
			</g>
			<g>
				<path class="st5" d="M870.87,430.47c-1.1-1.01-2.23-2.04-3.16-3.26c-0.46-0.61-0.86-1.27-1.12-1.99
					c-0.12-0.36-0.22-0.74-0.23-1.12c-0.01-0.38,0.08-0.78,0.35-1.06c-0.23,0.3-0.27,0.69-0.22,1.05c0.05,0.36,0.18,0.71,0.33,1.03
					c0.32,0.66,0.76,1.24,1.27,1.77c1.01,1.06,2.2,1.93,3.41,2.81L870.87,430.47z"/>
			</g>
			<g>
				<path class="st5" d="M871.47,429.84c-1.06-1.06-2.15-2.14-3.03-3.4c-0.44-0.63-0.81-1.31-1.04-2.05
					c-0.11-0.37-0.19-0.75-0.18-1.13c0-0.38,0.11-0.78,0.39-1.04c-0.24,0.29-0.3,0.68-0.27,1.04c0.03,0.36,0.15,0.72,0.29,1.05
					c0.29,0.67,0.72,1.27,1.2,1.82c0.97,1.1,2.13,2.02,3.3,2.96L871.47,429.84z"/>
			</g>
		</g>
		<g>
			<g>
				<path class="st5" d="M945.16,427.85c1.13-1.02,2.26-2.02,3.18-3.2c0.46-0.59,0.86-1.22,1.11-1.92c0.12-0.35,0.22-0.71,0.22-1.09
					c0.01-0.37-0.09-0.76-0.37-1.02c0.31,0.23,0.46,0.63,0.5,1.02c0.04,0.39-0.02,0.78-0.11,1.16c-0.18,0.76-0.53,1.48-0.94,2.14
					c-0.82,1.33-1.87,2.49-2.88,3.62L945.16,427.85z"/>
			</g>
			<g>
				<path class="st5" d="M944.45,427.2c1.13-1.02,2.25-2.02,3.17-3.2c0.46-0.59,0.86-1.22,1.11-1.92c0.12-0.35,0.22-0.71,0.22-1.09
					c0.01-0.37-0.09-0.76-0.37-1.02c0.31,0.23,0.46,0.63,0.49,1.02c0.04,0.39-0.02,0.78-0.11,1.16c-0.19,0.76-0.53,1.47-0.94,2.14
					c-0.82,1.33-1.86,2.48-2.88,3.62L944.45,427.2z"/>
			</g>
			<g>
				<path class="st5" d="M943.72,426.69c1.09-1.07,2.17-2.12,3.05-3.33c0.43-0.61,0.81-1.26,1.03-1.97c0.11-0.35,0.19-0.72,0.18-1.1
					c-0.01-0.37-0.12-0.75-0.41-1.01c0.32,0.22,0.49,0.61,0.54,1c0.06,0.39,0.01,0.79-0.06,1.17c-0.15,0.77-0.47,1.5-0.85,2.18
					c-0.77,1.36-1.77,2.56-2.73,3.74L943.72,426.69z"/>
			</g>
		</g>
		<path class="st12" d="M887.32,495.95c0,0,13.62,6.47,15.06,7.32c1.45,0.85,16.34-5.52,18.89-5.77c2.55-0.26-16.34-7.16-16.43-8.19
			s-13.9,7.19-16.59,6.72"/>
		<path class="st13" d="M898,385.6c-5.76-0.73-12.51-1.12-16.42,3.17c-3,3.28-3.2,8.2-2.89,12.63c0.15,2.14,0.42,4.38,1.64,6.14
			c1.22,1.77,3.68,2.85,5.59,1.86c2.6-3.65-0.18-9.39-4.52-10.51c-4.34-1.11-9.02,1.62-11.21,5.53c-2.19,3.91-2.3,8.68-1.53,13.09
			c0.15,0.84,0.34,1.71,0.86,2.39c2.01,2.63,6.25,0.33,9.47,1.07c1.46-2.09-0.17-5.22-2.55-6.12c-2.38-0.9-5.06-0.21-7.43,0.74
			c-14.35,5.74-24.2,21.18-23.35,36.61"/>
		<path class="st13" d="M897.47,385.03c-0.29-2.04,1.78-3.83,3.84-3.91c2.06-0.07,3.96,1.11,5.48,2.49
			c3.94,3.56,6.32,8.79,6.42,14.09c0.03,1.33-0.11,2.74-0.87,3.84c-0.93,1.33-2.57,1.92-4.14,2.33c-3.24,0.84-6.6,1.19-9.95,1.04
			c-2.69-0.12-6.11-1.38-5.98-4.07c2.65-1.26,5.48-2.14,8.38-2.58c1.55-0.24,3.18-0.35,4.64,0.21c2.44,0.93,3.85,3.46,4.84,5.88
			c1.64,3.99,2.44,9.22-0.78,12.09c-1.19,1.06-2.75,1.6-4.29,2.03c-2.7,0.76-5.57,1.28-8.31,0.66c-2.74-0.61-5.32-2.58-5.95-5.32
			c3.65-1.02,7.85,0.45,10.07,3.52c2.22,3.07,2.29,7.52,0.18,10.66c-1.9,2.83-5.21,4.41-8.5,5.31c-3.35,0.92-7.05,1.24-10.18-0.25
			c-3.13-1.49-5.36-5.25-4.19-8.52"/>
		<path class="st13" d="M887.98,383.83c1.31-1.26-0.69-3.23-2.41-3.82c-6.13-2.09-13.26-2.62-18.77,0.77
			c-5.51,3.39-8.14,11.67-4.01,16.65c1.05,1.27,2.61,2.28,4.25,2.09c1.64-0.19,3.05-2.03,2.35-3.52c-0.39-0.83-1.27-1.31-2.11-1.69
			c-7.9-3.57-17.41-3.34-25.13,0.6s-13.48,11.51-15.22,20c-0.5,2.46-0.67,5.1,0.29,7.42s3.3,4.21,5.81,3.99
			c1.98-0.18,3.63-1.57,5.05-2.96c-8.11-1.45-16.45-1.58-24.6-0.4c-4.91,0.71-10.16,2.16-13.13,6.13c-1.99,2.66-2.64,6.07-3.22,9.34
			c-1.74,9.75-3.36,20.01-0.18,29.39s12.85,17.35,22.5,15.09"/>
		<path class="st13" d="M959.03,412.39c1.82-4.3,7.66-5.89,11.91-3.98s6.88,6.46,7.59,11.07c0.4,2.6,0.21,5.49-1.46,7.53
			c-1.67,2.04-5.16,2.66-6.92,0.69c-1.78-1.03-1.66-3.91-0.15-5.3c1.51-1.39,3.81-1.56,5.83-1.14c8.16,1.67,12.57,10.63,14.13,18.82
			c0.96,5.04,1,10.99-2.83,14.41c-1.07,0.96-2.52,1.65-3.92,1.33c-1.4-0.32-2.48-1.99-1.8-3.25c1.02-1.88,3.96-0.78,5.38,0.82
			c3.22,3.63,4.5,8.6,4.93,13.43c0.66,7.44-0.63,15.43-5.49,21.11c-4.86,5.67-13.89,8.09-20.1,3.94"/>
		<path class="st13" d="M929.96,391.38c-0.9-5.99,5.54-11.81,11.41-10.31c4.64,1.19,7.61,5.72,9.35,10.18
			c1.45,3.73,2.37,7.67,2.71,11.67c0.17,1.99,0.18,4.09-0.73,5.86c-0.91,1.78-3.01,3.09-4.91,2.5c-1.91-0.59-2.73-3.55-1.1-4.69
			c3.86-1.28,8.05,0.63,11.36,3c9.72,6.97,16.03,18.49,16.64,30.44c0.23,4.54-0.53,9.55-3.92,12.57c-3.39,3.02-9.95,2.35-11.27-1.99
			c3.16-2.5,7.77,0.06,10.6,2.93c8.09,8.21,12.94,19.54,13.31,31.06c0.1,3.06-0.18,6.33-2.01,8.79c-1.52,2.04-3.89,3.24-6.22,4.27
			c-4.16,1.84-8.47,3.37-12.86,4.58c-6.84,1.88-15.17,2.59-20.07-2.53c-4.32-4.51-4.08-11.58-3.56-17.81"/>
		<path class="st13" d="M876.81,390.75c0.98-2.65-0.68-5.69-3.06-7.22s-5.29-1.9-8.09-2.24c-3.53-0.42-7.54-0.71-10.19,1.67
			c-1.64,1.47-2.39,3.68-2.97,5.81c-2.01,7.39-2.77,15.12-2.23,22.76c2.4,0.17,4.81,0.33,7.21,0.5c-2.15-7.45-12.81-9.54-19.29-5.28
			c-6.48,4.26-9.23,12.43-9.96,20.15c-0.58,6.16-0.16,12.41,1.24,18.43c-4.18-1.94-8.44-3.91-13.01-4.55
			c-4.57-0.64-9.57,0.23-12.95,3.37c-5.08,4.72-4.98,12.64-4.51,19.55"/>
		<path class="st13" d="M915.5,384.31c-0.19-5.39,5.31-10.16,10.65-9.41c5.35,0.75,9.31,6.59,8.24,11.88
			c-1.07,5.29-6.75,9.12-12.09,8.34c-1.32-0.94-0.77-3.22,0.63-4.03s3.16-0.54,4.72-0.08c9.1,2.69,16,11.57,16.37,21.05
			c0.08,2.1-0.43,4.63-2.39,5.37c-1.41-0.97-1.34-3.24-0.26-4.56c1.08-1.33,2.82-1.91,4.49-2.3c7.71-1.77,16.21-0.4,22.62,4.22
			c6.41,4.63,10.45,12.58,9.79,20.46c-0.21,2.46-1.69,5.49-4.13,5.09"/>
		<path class="st13" d="M831.89,459.26c-7.55,3.56-12.45,12.09-11.71,20.41c0.71,0.16,1.41,0.32,2.12,0.48
			c-4.82-1.15-8.84,3.59-11.52,7.76c-6.17,9.61-12.39,19.73-13.66,31.08c-0.41,3.69,0.29,8.31,3.77,9.6"/>
		<path class="st13" d="M835.42,440.81c-5.45-0.57-10.94-0.73-16.42-0.46c-1.39,0.07-2.87,0.19-4,1c-1.27,0.91-1.84,2.5-2.25,4.01
			c-1.49,5.45-1.9,11.2-1.19,16.81c2.78,1.28,6.09,1.71,8.9,0.48c2.8-1.23,4.84-4.38,4.19-7.37c-0.65-2.99-4.43-5.03-7.06-3.46
			c-1.37,0.82-2.16,2.32-2.84,3.77c-5.26,11.36-7.32,24.18-5.86,36.61c0.94,0.05,1.88,0.1,2.82,0.14c-2.8-0.81-5.9,0.66-7.66,2.98
			c-1.77,2.32-2.4,5.31-2.55,8.22c-0.23,4.47,0.71,9.25,3.8,12.48c3.09,3.23,8.72,4.23,12.08,1.28"/>
		<path class="st13" d="M834.51,474.45c-5.56,5.95-8.63,14.16-8.32,22.29c0.07,1.82,0.34,3.75,1.5,5.16
			c1.91,2.33,5.38,2.42,8.39,2.31c1.04-0.04,2.23-0.15,2.85-0.99c0.56-0.76,0.41-1.82,0.22-2.74c-0.44-2.09-1.02-4.23-2.31-5.94
			c-1.29-1.71-3.47-2.9-5.56-2.47c-3.02,0.62-4.48,4.04-5.13,7.05c-1.55,7.17-1.32,14.72,0.66,21.79c0.28,1.01,0.61,2.04,0.55,3.09
			c-0.06,0.98-0.44,1.91-0.79,2.84c-1.09,2.94-1.77,6.04-2.01,9.17c-0.19,2.5-0.05,5.2,1.43,7.23s4.71,2.91,6.55,1.21"/>
		<path class="st13" d="M903,380.72c2.52-2.06,1.46-6.46-1.18-8.36s-6.13-1.99-9.39-2.01c-3.77-0.03-7.71-0.02-11.07,1.68
			c-3.36,1.71-5.9,5.68-4.68,9.25c0.81-0.06,1.61-0.11,2.42-0.17c1.07-1.07,0.73-3-0.35-4.06c-1.08-1.06-2.64-1.44-4.14-1.66
			c-5.65-0.81-12.09,0.46-15.54,5.01c-2.12,2.79-2.82,6.4-3.12,9.9c-0.4,4.74-0.17,9.52,0.68,14.2c0.33,1.83,0.86,3.79,2.34,4.91
			c1.49,1.12,4.17,0.65,4.51-1.17c-5.88,2.49-10.6,7.59-12.62,13.65s-1.31,12.97,1.9,18.49"/>
		<path class="st13" d="M909.67,382.94c1.67-6.22,10.03-9.5,15.48-6.06c2.72,1.71,4.51,4.64,5.41,7.73
			c1.05,3.62,0.9,7.78-1.29,10.85c-2.18,3.07-6.7,4.56-9.94,2.64c-1.12-3.34-1.45-8.28,1.96-9.15c1.39-0.36,2.84,0.24,4.08,0.95
			c11.24,6.35,14.49,23.41,6.38,33.45c-1.23-1.86-1.64-4.25-1.11-6.41c6.78,0.33,12.89,4.05,18.37,8.04
			c6.45,4.7,12.78,10.33,15.28,17.92c2.5,7.58-0.33,17.42-7.82,20.19"/>
		<path class="st14" d="M930.66,388.45c0,6.77-0.84,13.51-9.6,13.51c-6.32,0-14.96-6.4-19.29-9.96c-0.91,2.02-3.13,3.45-5.73,3.45
			c-2.39,0-4.47-1.21-5.49-2.98c-3.47,3.49-10.48,9.41-18.08,9.41c-10.76,0-11.63-4.37-11.63-12.21c0-7.84,1.74-13.88,12.51-13.88
			c7.64,0,14.25,7.15,17.45,11.3c1.09-1.55,3.03-2.58,5.24-2.58c2.22,0,4.17,1.05,5.26,2.61c3.71-4.01,11.36-11.33,17.72-11.33
			C927.79,375.79,930.66,381.68,930.66,388.45z"/>
	</g>
	<g>
		<path class="st15" d="M472.04,372.26c9.87,21.38,14.3,18.69,28.76,12.02s16.98-13.51,7.11-34.89
			c-9.87-21.38-37.39-29.71-37.39-29.71S462.17,350.88,472.04,372.26z"/>
		<path class="st16" d="M659.17,524.61c0,0-65.05,61.92-140.2,57.21c-75.15-4.71-131.95-74.28-131.95-74.28s33.21-31.62,79.59-47.95
			c5.4-61.84,33.76-108.77,67.12-108.77c36.42,0,66.55,55.91,67.99,124.92C636.87,497.29,659.17,524.61,659.17,524.61z"/>
		<g>
			
				<ellipse transform="matrix(0.1296 -0.9916 0.9916 0.1296 -159.8282 819.7242)" class="st17" cx="387.02" cy="500.9" rx="14.94" ry="25.28"/>
			<ellipse class="st18" cx="380.38" cy="492.62" rx="6.63" ry="3.06"/>
		</g>
		<g>
			<path class="st0" d="M518.48,433.62c0,15.65-6.93,28.34-15.47,28.34c-5.12,0-9.67-4.56-12.49-11.59
				c-2.82,7.02-7.35,11.59-12.47,11.59c-8.55,0-15.49-12.69-15.49-28.34c0-15.65,6.93-28.34,15.49-28.34
				c5.12,0,9.66,4.56,12.47,11.59c2.82-7.02,7.36-11.59,12.49-11.59C511.55,405.29,518.48,417.97,518.48,433.62z"/>
			<ellipse class="st18" cx="476.23" cy="447.79" rx="5.74" ry="14.17"/>
			<ellipse class="st18" cx="501.25" cy="447.79" rx="5.74" ry="14.17"/>
			<ellipse class="st2" cx="475.53" cy="433.88" rx="0.7" ry="3.32"/>
			<ellipse class="st2" cx="503.61" cy="435.41" rx="0.7" ry="3.32"/>
		</g>
		<g>
			<path class="st5" d="M440.66,397.05c1.47-2.14,3.74-3.59,6.07-4.62c2.34-1.03,4.78-1.79,7.29-2.34c5-1.09,10.27-1.18,15.34,0.02
				c5.06,1.19,9.85,3.89,13.45,7.75c3.64,3.81,6.16,8.85,6.64,14.27l1.08,12.25l-3.97-11.68c-2.18-6.43-0.55-13.81,4.03-18.89
				c1.13-1.27,2.49-2.41,3.95-3.3c1.46-0.89,3.02-1.57,4.6-2.09c3.18-1.03,6.42-1.42,9.57-1.58c3.13-0.15,6.26-0.17,9.47,0.11
				c3.19,0.28,6.44,0.98,9.44,2.37c3.03,1.4,5.64,3.67,7.36,6.45c1.73,2.76,2.55,6.21,1.68,9.29l-0.39-0.07
				c0.17-3.05-1.03-5.89-2.87-8.1c-1.85-2.23-4.27-3.89-6.93-4.82c-5.41-1.94-11.48-1.54-17.5-1.14c-2.98,0.23-5.89,0.59-8.6,1.4
				c-2.7,0.8-5.18,2.06-7.08,4.02c-3.89,3.85-5.55,10.09-3.92,15.41l-2.88,0.56c-0.24-4.67-2.27-9.25-5.47-12.83
				c-1.59-1.8-3.43-3.4-5.49-4.67c-2.05-1.27-4.3-2.24-6.64-2.93c-4.7-1.35-9.76-1.51-14.65-0.67c-2.45,0.42-4.87,1.07-7.19,1.95
				c-2.3,0.88-4.54,2.14-6.05,4.11L440.66,397.05z"/>
		</g>
		<path class="st0" d="M482.43,575.12c7.85,2.51,33.16,5.48,33.16,5.48c28.14-11.81,45.04-39.44,60.06-65.37
			c-6.66,10.63-17.55,18.29-29.31,23.23c-11.76,4.94-24.46,7.38-37.09,9.49c-22,3.68-44.15,6.46-66.29,9.23
			C473.71,572.61,473.92,572.39,482.43,575.12z"/>
		<path class="st19" d="M563.24,349.87c-15.06,19.24-10.43,22.08,2.69,32.36c13.13,10.27,20.67,9.39,35.72-9.86
			s9.54-48.71,9.54-48.71S578.3,330.63,563.24,349.87z"/>
		
			<linearGradient id="SVGID_1_" gradientUnits="userSpaceOnUse" x1="587.6805" y1="537.532" x2="670.6307" y2="537.532" gradientTransform="matrix(1.0071 0.057 -0.0575 1.015 14.3819 -50.0655)">
			<stop  offset="0" style="stop-color:#FFFFFF"/>
			<stop  offset="0.0173" style="stop-color:#825C36"/>
			<stop  offset="0.1904" style="stop-color:#7E5934"/>
			<stop  offset="0.3629" style="stop-color:#72512F"/>
			<stop  offset="0.5353" style="stop-color:#5E4327"/>
			<stop  offset="0.7077" style="stop-color:#422F1B"/>
			<stop  offset="0.8784" style="stop-color:#1E150D"/>
			<stop  offset="1" style="stop-color:#000000"/>
		</linearGradient>
		<path class="st20" d="M613.66,483.71c0,0,43.7,33.93,45.58,42.36s-86.6,50.27-86.6,50.27L613.66,483.71z"/>
		<path class="st21" d="M441.96,556.65c5.54,3.92,11.32,7.51,17.29,10.74c-0.19-4.86,0.48-9.75,1.95-14.38
			c5.02,4.19,9.4,9.16,12.93,14.67c3.1-5.85,6.87-11.33,11.23-16.32c3.17,6.66,8.67,12.18,15.31,15.39
			c3.58-6.7,7.5-13.22,11.74-19.53c4.74,5.5,10.18,10.39,16.13,14.54c1.24-6.95,3.33-13.76,6.21-20.2c2.52,2.7,4.59,5.83,6.1,9.2
			c4.83-7.78,10.13-15.98,18.48-19.74"/>
		<path class="st22" d="M497.93,572.41c1.38-0.52,2.84-0.92,4.3-0.78s2.93,0.92,3.56,2.25c1.77-1.66,4.18-2.46,6.56-2.93
			c1.12-0.22,2.3-0.38,3.38-0.01c2.11,0.72,3.1,3.35,2.59,5.52c-0.51,2.17-2.16,3.9-3.97,5.2c-4.12,2.98-9.73,4.27-14.43,2.3
			c-1.34-0.56-2.56-1.36-3.7-2.27c-1.25-1-4.39-3.31-4.3-5.2C492.03,574.32,496.25,573.04,497.93,572.41z"/>
	</g>
</g>
</svg>
